<svg width="358" height="131" viewBox="0 0 358 131" fill="none" xmlns="http://www.w3.org/2000/svg">
<path d="M172.543 63.0361C169.653 64.7042 167.167 67.2572 165.475 70.2869C163.711 73.2818 162.727 76.7175 162.497 80.1152C162.47 80.5163 162.499 80.9164 162.486 81.3214C162.491 81.723 162.465 82.1166 162.52 82.5397C162.594 83.3683 162.653 84.193 162.818 85.0138C163.064 86.6653 163.536 88.2811 164.087 89.8702C165.257 93.0344 166.908 96.0792 168.979 98.8683C171.031 101.668 173.419 104.262 176.048 106.616C177.345 107.812 178.732 108.913 180.151 109.982C181.534 111.097 183.041 112.045 184.497 113.068C187.504 114.963 190.614 116.717 193.863 118.188C197.122 119.622 200.444 120.944 203.887 121.931C207.318 122.93 210.802 123.768 214.348 124.309L215.674 124.529L217.008 124.694C217.901 124.797 218.788 124.923 219.676 125.016C221.465 125.152 223.25 125.334 225.049 125.375C225.778 125.402 226.512 125.415 227.246 125.395L229.442 125.295L229.309 125.284C233.648 125.261 237.994 124.968 242.31 124.403C246.624 123.813 250.897 122.956 255.114 121.86C263.553 119.685 271.709 116.409 279.368 112.272C283.794 109.862 288.046 107.142 292.069 104.112L297.999 99.3745L303.638 94.2872C310.966 87.2902 317.494 79.4543 323.269 71.0803C334.818 54.3078 343.357 35.5278 349.94 16.1596C350.495 14.6586 351.011 12.851 351.627 11.0302C352.221 9.20332 352.874 7.36069 353.432 5.70021C354.583 2.38928 355.724 -0.0757219 356.542 0.24762C358.201 0.900309 357.471 8.37606 353.856 19.1467L352.183 24.0155L350.369 28.8463L349.457 31.2607L348.473 33.6476L346.498 38.4194C343.7 44.7083 340.799 50.9617 337.433 56.9785C335.838 60.0343 334.021 62.9588 332.266 65.9237L331.607 67.0365L328.077 72.4407C327.611 73.1646 327.137 73.8865 326.625 74.5739C324.604 77.3637 322.673 80.2092 320.48 82.8647C319.401 84.2012 318.379 85.5932 317.262 86.8952L313.881 90.7859C307.197 98.3079 299.657 105.048 291.416 110.911C283.095 116.681 273.95 121.198 264.388 124.489C254.829 127.765 244.829 129.794 234.719 130.377C224.617 130.961 214.384 130.061 204.539 127.447C195.713 125.09 187.196 121.342 179.664 116.073C175.905 113.456 172.295 110.551 169.117 107.169C165.916 103.813 163.092 100.038 160.94 95.8174C159.882 93.7001 158.994 91.4843 158.331 89.1767C157.712 86.8566 157.317 84.4765 157.205 82.0525C157.043 77.1002 158.337 72.242 160.736 68.0083C161.909 65.8722 163.432 63.9259 165.192 62.1957C166.048 61.3038 167.047 60.5627 168.028 59.8006L169.617 58.801C170.136 58.4513 170.74 58.2288 171.298 57.938C175.869 55.7916 181.443 55.4914 186.203 57.5678C188.431 58.5171 190.446 59.9056 192.123 61.5643C193.801 63.2229 195.18 65.1298 196.288 67.1486C198.494 71.1989 199.661 75.6915 199.867 80.2392C200.059 84.7829 199.258 89.445 197.184 93.6616C196.924 94.1844 196.654 94.7127 196.343 95.2141L195.892 95.9739L195.401 96.6673C194.733 97.5773 194.13 98.5446 193.363 99.3723C192.628 100.232 191.906 101.104 191.077 101.867L189.872 103.049C189.451 103.425 189.013 103.772 188.587 104.138C185.135 107.009 181.246 109.242 177.218 110.973C173.182 112.71 169.003 113.961 164.788 114.898C160.575 115.827 156.312 116.438 152.063 116.813L145.704 117.207L142.522 117.396C141.463 117.464 140.396 117.411 139.336 117.423C124.674 117.602 110.014 115.772 95.8446 112.199C81.6605 108.623 67.9463 103.323 55.03 96.5386C54.2637 96.1411 53.4974 95.7436 52.7236 95.3441C51.9458 94.9595 51.182 94.5227 50.4297 94.0729C48.9136 93.1862 47.3881 92.3049 45.866 91.4407C42.7679 89.7938 39.8629 87.9343 36.954 86.4182L37.0371 86.4965C33.8866 84.0588 30.4304 81.5072 26.9108 79.0426C25.124 77.8512 23.5214 76.4208 21.9475 75.0622C20.3872 73.6832 18.9251 72.2664 17.6533 70.7966C15.7414 68.9069 13.8405 66.9162 11.9114 65.1501C11.3589 64.6417 10.8324 64.1564 10.3317 63.6939C9.84248 63.2185 9.4116 62.7346 8.99511 62.2867C8.16213 61.3909 7.42719 60.5774 6.79778 59.8482C5.53697 58.3973 4.67186 57.2927 4.20843 56.5118C3.27411 54.9482 3.92962 54.6835 6.02128 55.4841C6.93663 55.8335 6.69282 54.7112 8.84295 56.6086C8.84842 56.6181 8.96382 56.7851 8.96382 56.7851L8.92953 56.7039C10.5374 57.9355 12.0762 59.3647 13.6783 60.827C15.3338 62.2395 16.9762 63.7607 18.614 65.3286C19.4396 66.1023 20.2343 66.9319 21.0789 67.6947C21.9425 68.4466 22.804 69.2059 23.6601 69.9558C25.3817 71.4501 27.067 72.9906 28.7942 74.3743C45.9262 87.7492 65.4403 98.151 86.2598 104.458C91.4225 106.17 96.7368 107.346 102.024 108.594L110.039 110.061C111.374 110.339 112.724 110.468 114.072 110.637L118.118 111.137C119.465 111.281 120.814 111.507 122.167 111.597L126.232 111.846C128.947 111.996 131.648 112.256 134.366 112.183C137.077 112.165 139.797 112.237 142.511 112.148L150.636 111.65C157.254 111.157 163.802 110.061 170.03 108.126C176.252 106.214 182.123 103.247 186.794 98.9972C187.351 98.4418 187.934 97.9094 188.478 97.3426L190.018 95.5692C190.942 94.3033 191.911 93.0494 192.574 91.7378C193.989 89.0898 194.708 86.0475 194.911 82.987C195.087 79.9111 194.698 76.7881 193.787 73.8534C192.857 70.9296 191.419 68.1661 189.452 65.9734C187.305 63.5564 184.507 61.9258 181.483 61.4678L180.341 61.3379L179.18 61.3072L178.026 61.3984L177.448 61.4356C177.256 61.4643 177.065 61.5173 176.881 61.548L175.74 61.7709L174.633 62.1387L174.072 62.3169L173.534 62.5649L172.448 63.0588C172.478 63.0668 172.514 63.0525 172.543 63.0361Z" fill="#E8EB47"/>
<path d="M1.69799 53.2692C1.7074 52.4869 1.67707 51.614 1.75171 50.8572L1.95479 48.9338C3.97638 49.9959 6.11537 51.2177 8.04945 52.1283C8.17046 52.1847 8.31949 52.1366 8.45451 52.1407L8.44359 52.1218L9.95542 52.8151C10.3279 52.979 10.7118 53.1299 11.1018 53.2585C12.9137 53.8481 14.7103 54.3454 16.4715 55.2738C16.7468 55.4116 17.2459 55.5214 16.93 57.2384C16.6015 59.0322 16.0373 60.0021 15.47 59.8181C14.1174 59.3675 12.8672 58.6241 11.4523 58.5253C10.4086 58.4458 9.41888 58.1646 8.4567 57.8107C8.21615 57.7222 7.97761 57.6263 7.73907 57.5303L7.17086 57.29C7.0125 57.2235 6.91937 57.1826 6.84266 57.1701C6.71164 57.151 6.59063 57.0945 6.46416 57.0286C6.42465 57.1461 6.4209 57.3694 6.45357 57.5463C6.47291 57.6235 6.50719 57.7048 6.54748 57.7636L6.56589 57.7846L6.57469 57.931L6.58827 58.2389L6.61344 58.8623C6.64833 59.6884 6.6588 60.516 6.57761 61.327C6.43193 62.7374 5.84983 64.1029 5.54872 65.4956C5.47758 65.8209 5.35159 66.1715 5.98889 66.5425L6.01331 66.541C5.18636 66.8479 6.6231 67.4331 5.41604 67.6942C5.37454 67.8192 5.24487 67.9446 5.29703 68.0787C5.53446 68.6868 4.89309 68.7792 2.92201 68.3952C2.48814 68.311 1.91218 68.3088 1.62242 68.1351L1.65631 68.1281L1.62442 68.1276C0.314166 67.6084 1.00424 67.1847 1.01722 66.7477C1.08358 64.5874 1.27002 62.4273 1.40762 60.2701L1.57042 58.2877C1.59673 57.9505 1.60555 57.6486 1.61745 57.2754C1.65006 56.6756 1.66227 56.0622 1.66553 55.4225C1.66385 54.7414 1.48554 53.8528 1.69452 53.2522L1.69799 53.2692Z" fill="#E8EB47"/>
</svg>
