<svg width="180" height="106" viewBox="0 0 180 106" fill="none" xmlns="http://www.w3.org/2000/svg">
<path d="M120.662 81.5537C120.057 80.908 119.252 80.056 118.266 79.042C117.267 78.0124 116.034 76.8182 114.613 75.5872C111.753 73.1352 108.088 70.4066 103.542 68.3683C101.269 67.3609 98.7799 66.5226 96.1132 66.1193C93.454 65.721 90.6146 65.7359 87.9102 66.4077C86.5631 66.736 85.2575 67.2032 84.0337 67.7818C82.814 68.3674 81.6766 69.0734 80.6348 69.8411C78.5537 71.3892 76.9083 73.1958 75.5763 74.922C74.03 76.9277 72.7581 79.0144 71.5752 81.0691C70.3923 83.1238 69.3044 85.1571 68.1774 87.0966C65.9357 90.9731 63.4948 94.4985 60.2671 96.7855C57.0631 99.1473 53.0581 100.311 48.9463 100.45C44.823 100.576 40.6036 99.6709 36.6818 98.0582C32.756 96.4386 29.0997 94.0949 26.0434 91.1741C25.2824 90.441 24.5455 89.6848 23.8697 88.8802C23.5265 88.4808 23.1868 88.0795 22.8788 87.6601L22.3991 87.0366L21.9476 86.3645C21.3486 85.4652 20.7092 84.5934 20.1943 83.637L19.3736 82.2322C19.1066 81.7618 18.8798 81.2638 18.6284 80.7799C16.6636 76.8913 15.1972 72.7151 14.0942 68.407C12.9856 64.0973 12.26 59.6493 11.7043 55.1558C11.3416 52.3491 11.0375 48.5205 10.6019 45.421C10.1663 42.3215 9.59916 39.9511 8.68181 40.1005C7.73932 40.2549 7.06377 41.9798 6.73208 44.9346C6.40743 47.8854 6.3914 52.0861 7.01978 57.1511C7.38274 60.2129 7.90189 63.2789 8.52006 66.3304C9.16535 69.3805 9.98354 72.4067 10.9737 75.3911C12.0227 78.3559 13.2311 81.2813 14.7214 84.0792C15.0838 84.7833 15.5117 85.4548 15.9022 86.1429L16.5042 87.1706L17.1676 88.1587C17.6201 88.8163 18.042 89.4773 18.5176 90.1264L19.256 91.0906C19.4991 91.4121 19.772 91.7121 20.0327 92.0236C20.5436 92.6527 21.1131 93.2207 21.6568 93.8173C22.2348 94.3757 22.7941 94.9587 23.403 95.4812C24.5883 96.5676 25.857 97.5463 27.1647 98.4705C28.4688 99.3966 29.8488 100.21 31.2486 100.984C32.663 101.727 34.1124 102.409 35.604 102.992C38.5902 104.147 41.7175 104.975 44.938 105.32C46.545 105.498 48.172 105.573 49.8053 105.486C50.6206 105.469 51.4368 105.363 52.2524 105.281C53.0657 105.153 53.8779 105.04 54.684 104.843C57.0386 104.318 59.3465 103.449 61.4738 102.237C63.5956 101.023 65.5317 99.4417 67.1703 97.6807C68.8124 95.9177 70.1925 93.997 71.4321 92.0586C72.6697 90.1167 73.7698 88.1461 74.8542 86.2216C77.0127 82.3877 79.1287 78.6429 81.9333 75.8486C82.6362 75.1572 83.375 74.529 84.1536 73.9709C84.9322 73.4129 85.7666 72.9532 86.6224 72.5557C87.4796 72.1526 88.383 71.8719 89.2987 71.6539C90.2163 71.4393 91.1567 71.3141 92.1131 71.291C95.9456 71.1533 99.8975 72.4658 103.502 74.4304C107.123 76.4086 110.469 79.0351 113.467 81.9935C114.962 83.4937 116.466 85.1003 117.959 86.7128C119.462 88.3248 120.967 89.9584 122.542 91.5665C125.678 94.7761 129.078 97.9335 133.111 100.439C134.937 101.529 136.846 102.553 138.913 103.254L139.678 103.535L140.466 103.756C140.994 103.898 141.517 104.056 142.048 104.186C142.588 104.292 143.129 104.408 143.674 104.498C144.22 104.564 144.77 104.655 145.317 104.698C149.728 105.095 154.179 104.249 158.156 102.543C162.148 100.839 165.709 98.3259 168.736 95.3314C171.762 92.3279 174.271 88.8331 176.134 84.9953C177.063 83.0756 177.827 81.0726 178.4 79.0022C178.53 78.4831 178.684 77.959 178.785 77.4468L179.089 75.8959C179.176 75.3772 179.315 74.8667 179.367 74.3409L179.561 72.7779C180.044 68.6043 179.926 64.3964 179.355 60.2873C178.203 52.0571 175.325 44.2862 171.71 37.0312L170.397 34.4951L169.023 31.9931C168.083 30.3215 167.076 28.679 166.012 27.0739C163.887 23.8653 161.506 20.8119 158.86 17.9646C156.216 15.1209 153.265 12.5018 149.969 10.2744C146.68 8.05194 142.989 6.23858 138.967 5.25385C134.962 4.25913 130.637 4.17024 126.559 5.10662C122.459 6.04598 118.767 7.87695 115.435 9.88924C112.109 11.9211 109.06 14.1206 106.015 16.0811C102.98 18.0591 99.9299 19.7394 96.7846 20.7264C96.4451 20.8263 96.1114 20.9693 95.7665 21.0351L94.7388 21.261C94.0609 21.4462 93.3604 21.5096 92.6673 21.6106C91.2734 21.7334 89.8694 21.7645 88.4622 21.6256C87.056 21.4723 85.6432 21.2251 84.2432 20.8362C82.8427 20.4382 81.4471 19.9585 80.0696 19.3711C77.3075 18.2003 74.595 16.7228 71.8973 15.107C69.2 13.5002 66.5103 11.7591 63.7588 10.0484C60.9967 8.34384 58.1803 6.64217 55.1821 5.14582C52.1996 3.63594 49.0287 2.34439 45.6831 1.46766C38.9109 -0.272353 31.7424 0.171498 25.2247 2.35327C22.154 3.38145 18.8619 4.83243 15.7736 6.83145C12.6904 8.82295 9.83607 11.3901 7.64329 14.2687C7.21 14.8767 6.71128 15.5172 6.24336 16.2285C5.80548 16.9598 5.30523 17.7126 4.85893 18.5276C4.64605 18.9408 4.43164 19.3596 4.21217 19.7859C3.99622 20.2102 3.76418 20.639 3.58778 21.0919C3.39836 21.5383 3.2074 21.9902 3.01644 22.4421C2.92648 22.6695 2.81996 22.8924 2.73751 23.1249L2.4992 23.8219C2.33982 24.2883 2.18396 24.7528 2.0281 25.2172C1.86672 25.6802 1.76957 26.1577 1.64283 26.6242C1.52162 27.0922 1.40193 27.5547 1.28577 28.0152C1.20072 28.4813 1.11522 28.9383 1.03125 29.3898C0.952792 29.8428 0.862841 30.2838 0.801552 30.7177C0.756818 31.1563 0.70963 31.5822 0.661982 31.9992C0.619853 32.4177 0.578795 32.8216 0.538809 33.211C0.527947 33.6024 0.514631 33.9814 0.502387 34.3457C0.494892 34.661 0.485405 34.9727 0.479903 35.2915L0.469657 35.7661L0.488535 36.2428C0.513705 36.8784 0.535349 37.5159 0.558526 38.148C0.590746 38.7796 0.6737 39.4102 0.718488 40.0393C0.741649 40.351 0.770327 40.6643 0.791495 40.9726C0.832742 41.2834 0.875522 41.5887 0.916308 41.8905C1.01551 42.5908 1.07165 43.2645 1.20886 43.8921C1.34608 44.5198 1.47639 45.1189 1.60134 45.6839C1.63384 45.8233 1.66634 45.9627 1.69885 46.102C1.7384 46.2374 1.78147 46.3708 1.82256 46.5006C1.90473 46.7603 1.9849 47.0166 2.06462 47.2637C2.22559 47.7526 2.36908 48.2189 2.53034 48.6426C2.88859 49.479 3.21879 50.1921 3.5174 50.7838C3.83916 51.3671 4.16459 51.809 4.43023 52.1456C5.52347 53.4886 6.00534 52.9087 6.16755 50.8624C6.20278 50.4153 6.45783 50.3309 6.60174 50.0589C6.67822 49.9227 6.70918 49.7473 6.70104 49.4455C6.69842 49.1453 6.63908 48.7287 6.48914 48.1361C6.46599 48.0379 6.41969 47.8413 6.397 47.7521C6.28708 47.3039 6.22697 46.8367 6.15276 46.3775C6.07855 45.9183 5.9973 45.4631 5.9145 45.0134L5.73556 43.6389C5.68143 43.1822 5.58254 42.737 5.55708 42.2734C5.48852 41.3561 5.34255 40.4502 5.32273 39.5285L5.23621 38.1526L5.22909 36.7687C5.1892 35.8444 5.27636 34.9223 5.30528 33.9961C5.30695 33.5309 5.39046 33.0704 5.43228 32.6103C5.48667 32.1478 5.52098 31.6827 5.58993 31.2211C5.90084 29.3875 6.26907 27.5399 6.92316 25.7854C7.26982 24.6881 7.7719 23.6511 8.22232 22.597C8.75843 21.5872 9.25699 20.5522 9.89779 19.6036L10.3522 18.8768C10.501 18.6299 10.6859 18.4136 10.8517 18.1802C11.1949 17.7254 11.519 17.2536 11.8737 16.8109L12.9958 15.5195L13.2785 15.1965L13.5843 14.8976L14.1939 14.2963L14.8014 13.6915C15.0108 13.4938 15.2376 13.3186 15.453 13.1314C15.8952 12.769 16.3159 12.377 16.7715 12.0301L18.1616 11.0137C18.3884 10.8385 18.6347 10.6894 18.879 10.5368L19.6084 10.081C21.5679 8.88517 23.641 7.85691 25.8214 7.11596C27.9917 6.35746 30.2306 5.76895 32.5112 5.50025C34.7838 5.21751 37.0903 5.10122 39.364 5.33774C41.6423 5.55773 43.8595 5.96561 46.0515 6.69875C48.2426 7.41384 50.387 8.35042 52.4931 9.4248C56.7052 11.5735 60.7482 14.2454 64.8871 16.9138C69.0326 19.5692 73.2722 22.2919 78.0433 24.3415C80.4204 25.3595 82.9369 26.1963 85.5666 26.6903C88.1896 27.1974 90.9376 27.3086 93.6308 26.9867C94.3027 26.8977 94.9791 26.8248 95.6364 26.6606C96.2961 26.5089 96.9682 26.3874 97.617 26.2001L99.539 25.5872C100.172 25.3718 100.774 25.0948 101.389 24.8479C103.817 23.7949 106.088 22.5243 108.226 21.1668C110.856 19.5021 113.329 17.741 115.803 16.1137C118.277 14.4864 120.756 12.982 123.316 11.8585C123.636 11.7235 123.95 11.5545 124.278 11.4425L125.254 11.0927C125.578 10.9828 125.899 10.8423 126.229 10.7575L127.215 10.4994C128.523 10.1099 129.875 9.94594 131.221 9.84564C132.57 9.74335 133.929 9.81248 135.275 9.97633C136.624 10.1347 137.96 10.4439 139.274 10.8538C139.933 11.0459 140.575 11.2987 141.224 11.5385C141.86 11.8134 142.504 12.0697 143.125 12.3906C143.756 12.682 144.365 13.0325 144.983 13.3645C145.585 13.728 146.196 14.073 146.78 14.4701C149.149 16.0079 151.349 17.8462 153.404 19.8498C157.512 23.868 161.001 28.5857 163.901 33.596C165.478 36.3729 166.916 39.2604 168.217 42.1844C169.52 45.1119 170.67 48.0984 171.735 51.1239L171.698 51.0191C172.705 54.2124 173.46 57.4646 173.911 60.7316C174.365 64.002 174.474 67.282 174.242 70.5191C174.227 71.289 174.093 72.0472 174.009 72.81C173.959 73.1908 173.921 73.5747 173.864 73.9506L173.642 75.0791C173.379 76.6115 172.99 78.035 172.488 79.4665C171.494 82.3233 170.012 85.0403 168.212 87.5194C166.403 89.9989 164.226 92.2145 161.808 94.0649C159.381 95.9067 156.685 97.3488 153.875 98.2525C151.063 99.1616 148.122 99.4572 145.281 99.1338C144.928 99.0788 144.572 99.0584 144.222 98.9833L143.172 98.7762L142.125 98.4839C141.779 98.3832 141.422 98.3122 141.088 98.1675C140.41 97.9021 139.716 97.6974 139.059 97.3603L138.061 96.9006C137.734 96.7339 137.412 96.5451 137.089 96.3708C134.504 94.9371 132.09 93.0905 129.821 91.0135C127.54 88.9425 125.38 86.6877 123.221 84.4039C122.526 83.6798 121.674 82.6314 120.662 81.5537Z" fill="black"/>
</svg>
